<?xml version="1.0" standalone="no"?>
<!DOCTYPE svg PUBLIC "-//W3C//DTD SVG 20010904//EN"
 "http://www.w3.org/TR/2001/REC-SVG-20010904/DTD/svg10.dtd">
<svg version="1.0" xmlns="http://www.w3.org/2000/svg"
 width="260.000000pt" height="260.000000pt" viewBox="0 0 260.000000 260.000000"
 preserveAspectRatio="xMidYMid meet">
<metadata>
Created by potrace 1.11, written by Peter Selinger 2001-2013
</metadata>
<g transform="translate(0.000000,260.000000) scale(0.100000,-0.100000)"
fill="#000000" stroke="none">
<path d="M1660 1864 c-208 -45 -348 -190 -385 -401 -56 -311 78 -566 342 -649
79 -25 226 -29 323 -10 142 29 277 94 307 149 8 15 12 73 13 175 0 231 -1 232
-254 232 -132 0 -166 -3 -184 -16 -54 -37 -48 -113 10 -133 17 -6 78 -11 134
-11 l104 0 0 -89 0 -90 -82 -31 c-218 -84 -394 -31 -474 142 -28 60 -29 70
-29 203 0 133 1 143 29 202 54 118 154 183 279 183 104 0 168 -38 237 -140 47
-69 84 -87 135 -66 39 17 65 51 65 86 0 45 -45 124 -99 172 -105 95 -291 131
-471 92z"/>
<path d="M275 1846 c-54 -24 -55 -29 -55 -512 0 -491 0 -492 61 -513 40 -14
406 -15 479 -1 169 32 289 150 337 333 22 86 22 281 -1 366 -50 185 -170 303
-337 330 -95 16 -447 13 -484 -3z m470 -180 c99 -42 145 -126 153 -283 8 -160
-21 -266 -91 -341 -45 -47 -107 -62 -254 -62 l-123 0 0 356 0 357 138 -5 c98
-4 148 -10 177 -22z"/>
</g>
</svg>
